<?xml version="1.0" encoding="UTF-8"?>
<svg version="1.1" viewBox="0 0 2000 1500" width="1280" height="1280" xmlns="http://www.w3.org/2000/svg">
<path transform="translate(0)" d="m0 0h2e3v1500h-2e3z" fill="#080807"/>
<path transform="translate(1317,534)" d="m0 0h118v431h-118z" fill="#FDFDFD"/>
<path transform="translate(1461,534)" d="m0 0h117l1 1v429l-1 1h-117z" fill="#C0C0BF"/>
<path transform="translate(1605,534)" d="m0 0h117v431h-117l-1-1v-429z" fill="#838383"/>
<path transform="translate(454,670)" d="m0 0 5 1 3 2v15l15-9 15-6 13-3h20l11 3 12 6 10 9 7 11 5 12 3 17v26l-3 17-5 14-7 12-9 10-10 7-11 5-11 3-8 1h-13l-16-3-14-5-4-2 1 25 1 43 1 9 8 3 13 2 1 4-1 6h-76l1-9 1-1 16-3 5-1 2-24 1-24v-124l-1-28-12-3-9-3-1-9 26-3z" fill="#F9F9F9"/>
<path transform="translate(836,670)" d="m0 0h26l15 3 16 8 9 8 9 14 5 15 2 13v19l-3 17-5 15-9 15-11 11-13 8-15 5-14 2h-16l-15-2-14-5-11-7-9-10-8-16-4-18v-25l4-19 7-16 9-13 10-9 12-7 16-5z" fill="#F9F9F9"/>
<path transform="translate(664,670)" d="m0 0h26l14 3 12 5 8 6 5 4 9 13 5 13 2 9 1 9v17l-3 18-4 12-8 15-11 12-8 6-12 6-15 4-9 1h-16l-19-3-12-5-10-7-8-9-8-16-4-17v-26l3-16 5-13 6-11 8-10 8-7 12-7 16-5z" fill="#F9F9F9"/>
<path transform="translate(310,594)" d="m0 0h27l15 3h25l3 38 1 13-6 3-4-1-6-16-6-10-7-6-11-5-12-2h-11l-14 3-9 6-6 9-2 7v10l4 12 8 11 12 9 25 16 27 18 10 8 8 8 7 11 4 11 1 4v16l-3 12-7 13-9 10-11 8-10 5-14 4-7 1h-27l-23-3-21-5-9-4 4-28 1-20 6-3h4l6 21 5 10 4 5 10 6 13 3h19l12-3 10-6 7-8 4-9 1-4v-10l-4-12-6-8-12-9-23-15-33-22-10-9-7-10-5-11-2-8v-18l4-13 9-14 7-7 14-9 11-4z" fill="#F9F9F9"/>
<path transform="translate(839,686)" d="m0 0h13l11 3 8 5 8 9 6 13 4 20 1 17-2 14-4 12-6 11-4 5-11 8-8 3-7 1h-9l-10-2-10-5-7-7-7-12-5-19-1-9v-14l3-16 5-13 7-11 8-7 8-4z" fill="#080807"/>
<path transform="translate(667,686)" d="m0 0h13l11 3 8 5 8 9 5 11 4 16 1 6v26l-4 15-7 13-9 9-8 5-13 3h-9l-10-2-10-5-7-7-6-10-5-15-2-14v-16l4-18 5-12 6-9 8-7 8-4z" fill="#080807"/>
<path transform="translate(491,691)" d="m0 0h22l10 3 9 6 6 8 5 13 2 12v19l-3 16-5 13-9 12-10 7-11 4-6 1h-18l-15-3-6-2v-100l12-5z" fill="#080807"/>
<path transform="translate(1101,624)" d="m0 0 5 1 2 1v46h48l1 5-11 12h-14l-24-1 1 98 2 11 5 4 6 2h8l16-4 5-2h4l3 8-1 4-17 9-12 4-6 1h-11l-12-3-8-5-5-6-3-8-1-12v-101h-21l-1-4 8-13 11 1 2 1-1-30 8-8 8-7z" fill="#F7F7F7"/>
<path transform="translate(1030,668)" d="m0 0h6l5 4 7 10 3 9-4 6-10-2-4-1h-17l-11 4-7 6-5 8-3 10-1 8v36l1 25 2 13 6 3 21 4-1 10h-79v-9l4-2 12-3 5-2 2-20v-79l-1-15-12-3-9-3-1-9 26-3 15-3 6 1 3 2v24l8-10 8-7 14-8z" fill="#F8F8F8"/>
<path transform="translate(1210,670)" d="m0 0 5 1 3 2 1 110 2 19 1 3 13 4 9 2-1 10h-76v-10l17-4 5-2 2-13 1-22v-49l-1-20-2-10-20-6v-9l31-4z" fill="#F8F8F8"/>
<path transform="translate(1199,602)" d="m0 0h11l6 4 4 5 2 9-3 9-5 5-7 3-9-1-7-5-3-5-1-10 3-7 5-5z" fill="#F8F8F8"/>
</svg>
